<svg width="8" height="11" viewBox="0 0 8 11" fill="none" xmlns="http://www.w3.org/2000/svg">
<path d="M7.51392 5.22688C7.50701 5.42417 7.42759 5.59912 7.25149 5.72196C5.77014 6.74562 4.2888 7.773 2.80745 8.79666C2.16864 9.23963 1.52984 9.67887 0.891027 10.1218C0.804702 10.1814 0.697658 10.1516 0.649316 10.0511C0.521554 9.7831 0.390339 9.51509 0.262577 9.24707C0.183158 9.08329 0.203877 8.99023 0.345451 8.88972C1.04641 8.40581 1.74392 7.91818 2.44489 7.43427C3.46007 6.73073 4.47871 6.0272 5.4939 5.32367C5.61821 5.23805 5.62166 5.15616 5.4939 5.07054C4.60302 4.45263 3.71214 3.83843 2.82126 3.22051C1.98909 2.64354 1.15691 2.06657 0.328185 1.4896C0.2315 1.4226 0.19697 1.28487 0.248765 1.17319C0.379979 0.894015 0.514648 0.614835 0.652768 0.335656C0.71147 0.216539 0.783983 0.197926 0.891026 0.272374C2.03052 1.06152 3.17002 1.85067 4.30951 2.63982C5.27291 3.30613 6.2363 3.97616 7.20314 4.63874C7.39651 4.7802 7.51046 4.95515 7.51392 5.22688Z" fill="black"/>
</svg>
