<svg width="8" height="11" viewBox="0 0 8 11" fill="none" xmlns="http://www.w3.org/2000/svg">
<path d="M5.2728 5.19694C5.09669 5.0741 4.93095 4.95499 4.76175 4.83959C3.34256 3.85688 1.92337 2.87417 0.504181 1.89146C0.41095 1.82445 0.314266 1.76117 0.221034 1.69417C0.0104005 1.549 -0.0552071 1.31449 0.0587422 1.07253C0.19341 0.789628 0.328078 0.506727 0.466199 0.223825C0.576695 0.000481278 0.790782 -0.066522 0.991056 0.0712067C1.54699 0.450891 2.09602 0.834296 2.6485 1.21398C3.51866 1.81701 4.39228 2.42004 5.26244 3.02306C5.96685 3.5107 6.67472 3.99833 7.37914 4.48969C7.85565 4.8247 7.8522 5.57291 7.37568 5.9042C6.22583 6.70079 5.07598 7.50111 3.92267 8.2977C2.94201 8.97518 1.96481 9.65265 0.984152 10.3301C0.804595 10.4567 0.580149 10.4009 0.480011 10.1961C0.331531 9.89461 0.183052 9.59309 0.0414781 9.28786C-0.0517536 9.08313 0.0173067 8.84117 0.196864 8.71833C1.71619 7.66489 3.23206 6.61518 4.75139 5.56174C4.91023 5.45379 5.06907 5.34212 5.22791 5.23417C5.24172 5.23044 5.25553 5.21556 5.2728 5.19694ZM7.5138 5.22672C7.51035 4.95127 7.39985 4.77631 7.20303 4.64603C6.23619 3.98344 5.2728 3.31341 4.30941 2.6471C3.16991 1.85795 2.03041 1.06881 0.890919 0.279661C0.783876 0.205213 0.711362 0.223824 0.652661 0.342941C0.517994 0.622121 0.383326 0.901299 0.248658 1.18048C0.196863 1.29215 0.231394 1.42616 0.328078 1.49688C1.16026 2.07385 1.98898 2.65083 2.82115 3.2278C3.71203 3.84571 4.60291 4.45991 5.49379 5.07783C5.6181 5.16344 5.6181 5.24533 5.49379 5.33095C4.4786 6.03448 3.45996 6.73802 2.44478 7.44155C1.74381 7.92546 1.04631 8.40937 0.345344 8.89701C0.179599 9.0124 0.179599 9.12035 0.307361 9.33625C0.431669 9.54842 0.538712 9.77549 0.62849 10.01C0.694098 10.1738 0.766612 10.2073 0.89092 10.1254C1.52973 9.68243 2.16854 9.24319 2.80734 8.80022C4.28869 7.77284 5.77003 6.74918 7.25137 5.72552C7.42748 5.59896 7.50345 5.42401 7.5138 5.22672Z" fill="black" fill-opacity="0.3"/>
<path d="M7.51386 5.22688C7.50696 5.42417 7.42754 5.59912 7.25143 5.72196C5.77009 6.74562 4.28874 7.773 2.8074 8.79666C2.16859 9.23963 1.52978 9.67887 0.890974 10.1218C0.804648 10.1814 0.697605 10.1516 0.649262 10.0511C0.521501 9.7831 0.390285 9.51509 0.262524 9.24707C0.183104 9.08329 0.203823 8.99023 0.345397 8.88972C1.04636 8.40581 1.74387 7.91818 2.44483 7.43427C3.46002 6.73073 4.47866 6.0272 5.49385 5.32367C5.61816 5.23805 5.62161 5.15616 5.49385 5.07054C4.60297 4.45263 3.71209 3.83843 2.82121 3.22051C1.98903 2.64354 1.15686 2.06657 0.328131 1.4896C0.231447 1.4226 0.196916 1.28487 0.248711 1.17319C0.379926 0.894015 0.514594 0.614835 0.652715 0.335656C0.711416 0.216539 0.783929 0.197926 0.890973 0.272374C2.03047 1.06152 3.16997 1.85067 4.30946 2.63982C5.27285 3.30613 6.23625 3.97616 7.20309 4.63874C7.39646 4.7802 7.51041 4.95515 7.51386 5.22688Z" fill="black" fill-opacity="0.3"/>
</svg>
