<svg width="22" height="13" viewBox="0 0 22 13" fill="none" xmlns="http://www.w3.org/2000/svg"><rect width="22" height="13" fill="#E5E5E5"/><rect x="-944" y="-393" width="1024" height="1366" fill="white"/><rect x="-944" y="-393" width="1023" height="610" rx="5" fill="white"/><mask id="path-3-outside-1" maskUnits="userSpaceOnUse" x="0.47168" y="-1.19249e-08" width="21" height="13" fill="black"><rect fill="white" x="0.47168" y="-1.19249e-08" width="21" height="13"/><path d="M10.9458 12C10.5663 11.9898 10.2298 11.8723 9.99352 11.6119C8.02451 9.42115 6.04834 7.2304 4.07933 5.03965C3.22729 4.09492 2.3824 3.15019 1.53036 2.20546C1.4158 2.07779 1.47308 1.91949 1.6664 1.84799C2.18192 1.65905 2.69745 1.465 3.21297 1.27605C3.52801 1.1586 3.70701 1.18924 3.90033 1.39861C4.83114 2.43526 5.7691 3.4668 6.69991 4.50345C8.05315 6.0048 9.4064 7.51126 10.7596 9.01261C10.9243 9.19645 11.0818 9.20156 11.2465 9.01261C12.4351 7.6951 13.6165 6.37759 14.8051 5.06007C15.9149 3.82937 17.0247 2.59867 18.1345 1.37308C18.2634 1.23009 18.5283 1.17902 18.7431 1.25562C19.2801 1.44968 19.8171 1.64884 20.3541 1.8531C20.5832 1.93991 20.619 2.04715 20.4758 2.20546C18.9579 3.89065 17.44 5.57584 15.922 7.26104C14.6404 8.68579 13.3516 10.1105 12.0771 11.5404C11.805 11.8264 11.4685 11.9949 10.9458 12Z"/></mask><path d="M10.9458 12C10.5663 11.9898 10.2298 11.8723 9.99352 11.6119C8.02451 9.42115 6.04834 7.2304 4.07933 5.03965C3.22729 4.09492 2.3824 3.15019 1.53036 2.20546C1.4158 2.07779 1.47308 1.91949 1.6664 1.84799C2.18192 1.65905 2.69745 1.465 3.21297 1.27605C3.52801 1.1586 3.70701 1.18924 3.90033 1.39861C4.83114 2.43526 5.7691 3.4668 6.69991 4.50345C8.05315 6.0048 9.4064 7.51126 10.7596 9.01261C10.9243 9.19645 11.0818 9.20156 11.2465 9.01261C12.4351 7.6951 13.6165 6.37759 14.8051 5.06007C15.9149 3.82937 17.0247 2.59867 18.1345 1.37308C18.2634 1.23009 18.5283 1.17902 18.7431 1.25562C19.2801 1.44968 19.8171 1.64884 20.3541 1.8531C20.5832 1.93991 20.619 2.04715 20.4758 2.20546C18.9579 3.89065 17.44 5.57584 15.922 7.26104C14.6404 8.68579 13.3516 10.1105 12.0771 11.5404C11.805 11.8264 11.4685 11.9949 10.9458 12Z" fill="black" fill-opacity="0.3"/><path d="M10.9458 12C10.5663 11.9898 10.2298 11.8723 9.99352 11.6119C8.02451 9.42115 6.04834 7.2304 4.07933 5.03965C3.22729 4.09492 2.3824 3.15019 1.53036 2.20546C1.4158 2.07779 1.47308 1.91949 1.6664 1.84799C2.18192 1.65905 2.69745 1.465 3.21297 1.27605C3.52801 1.1586 3.70701 1.18924 3.90033 1.39861C4.83114 2.43526 5.7691 3.4668 6.69991 4.50345C8.05315 6.0048 9.4064 7.51126 10.7596 9.01261C10.9243 9.19645 11.0818 9.20156 11.2465 9.01261C12.4351 7.6951 13.6165 6.37759 14.8051 5.06007C15.9149 3.82937 17.0247 2.59867 18.1345 1.37308C18.2634 1.23009 18.5283 1.17902 18.7431 1.25562C19.2801 1.44968 19.8171 1.64884 20.3541 1.8531C20.5832 1.93991 20.619 2.04715 20.4758 2.20546C18.9579 3.89065 17.44 5.57584 15.922 7.26104C14.6404 8.68579 13.3516 10.1105 12.0771 11.5404C11.805 11.8264 11.4685 11.9949 10.9458 12Z" stroke="black" stroke-opacity="0.3" mask="url(#path-3-outside-1)"/></svg>