<svg width="8" height="15" viewBox="0 0 8 15" fill="none" xmlns="http://www.w3.org/2000/svg">
<path d="M-1.58858e-07 7.01858C0.00689066 6.73746 0.0861352 6.48816 0.261851 6.31312C1.73993 4.85444 3.21801 3.39046 4.69609 1.93179C5.33349 1.30058 5.97089 0.674679 6.60829 0.0434714C6.69443 -0.0413969 6.80123 0.00103736 6.84947 0.144253C6.97695 0.52616 7.10787 0.908067 7.23535 1.28997C7.3146 1.52336 7.29393 1.65597 7.15266 1.79918C6.45325 2.48874 5.75727 3.1836 5.05786 3.87315C4.04491 4.87566 3.02851 5.87817 2.01556 6.88067C1.89153 7.00267 1.88808 7.11936 2.01556 7.24136C2.90448 8.12187 3.79339 8.99707 4.68231 9.87758C5.51265 10.6997 6.34299 11.5219 7.16989 12.3441C7.26636 12.4395 7.30082 12.6358 7.24914 12.7949C7.11821 13.1927 6.98384 13.5906 6.84602 13.9884C6.78745 14.1581 6.7151 14.1846 6.60829 14.0786C5.47131 12.9541 4.33432 11.8296 3.19734 10.705C2.23607 9.75558 1.2748 8.80082 0.310086 7.85666C0.117144 7.6551 0.00344524 7.40579 -1.58858e-07 7.01858Z" fill="black" fill-opacity="0.3"/>
</svg>
