<svg width="15" height="8" viewBox="0 0 15 8" fill="none" xmlns="http://www.w3.org/2000/svg">
<path d="M7.86368 7.49805C7.58255 7.49116 7.33325 7.41191 7.15821 7.2362C5.69954 5.75812 4.23556 4.28004 2.77688 2.80196C2.14568 2.16456 1.51977 1.52716 0.888564 0.889757C0.803696 0.803622 0.84613 0.696814 0.989345 0.648578C1.37125 0.521098 1.75316 0.390172 2.13507 0.262692C2.36845 0.183448 2.50106 0.204122 2.64428 0.345383C3.33383 1.0448 4.02869 1.74077 4.71825 2.44019C5.72075 3.45314 6.72326 4.46953 7.72577 5.48248C7.84776 5.60652 7.96446 5.60996 8.08646 5.48248C8.96696 4.59357 9.84217 3.70465 10.7227 2.81574C11.5448 1.9854 12.367 1.15505 13.1892 0.328156C13.2846 0.231685 13.4809 0.19723 13.64 0.248911C14.0378 0.379837 14.4357 0.514208 14.8335 0.652024C15.0032 0.710596 15.0297 0.782949 14.9237 0.889757C13.7992 2.02674 12.6746 3.16373 11.5501 4.30071C10.6007 5.26198 9.64591 6.22325 8.70175 7.18796C8.50019 7.3809 8.25089 7.4946 7.86368 7.49805Z" fill="black"/>
</svg>
