<svg width="31" height="20" viewBox="0 0 31 20" fill="none" xmlns="http://www.w3.org/2000/svg">
<path d="M30.4929 9.87738H27.8719V5.4422C27.8719 5.1614 27.6449 4.93412 27.3651 4.93412H19.156V0.508078C19.156 0.22728 18.929 0 18.6493 0H0.506718C0.226672 0 0 0.22728 0 0.508078V17.168C0 17.4484 0.226672 17.676 0.506718 17.676H4.74221C4.91787 18.9859 6.0367 20 7.38998 20C8.74325 20 9.86209 18.9859 10.0377 17.676H18.6493H21.9213C22.097 18.9859 23.2165 20 24.5711 20C25.9257 20 27.0452 18.9859 27.2212 17.676H30.4933C30.773 17.676 31 17.4484 31 17.168V10.3855C30.9997 10.1047 30.7727 9.87738 30.4929 9.87738ZM7.38998 18.9838C6.47417 18.9838 5.72895 18.2363 5.72895 17.3173C5.72895 16.3984 6.47417 15.6508 7.38998 15.6508C8.30579 15.6508 9.051 16.3984 9.051 17.3173C9.051 18.2363 8.30612 18.9838 7.38998 18.9838ZM7.38998 14.6347C6.14176 14.6347 5.09387 15.4981 4.80031 16.6599H1.01344V1.01616H18.1425V5.4422V10.3855V16.6596H9.97998C9.68642 15.4981 8.63819 14.6347 7.38998 14.6347ZM24.5711 18.9838C23.6539 18.9838 22.9081 18.2363 22.9081 17.3173C22.9081 16.3984 23.6539 15.6508 24.5711 15.6508C25.4883 15.6508 26.2345 16.3984 26.2345 17.3173C26.2345 18.2363 25.4879 18.9838 24.5711 18.9838ZM29.9862 16.6596H27.1631C26.8692 15.4977 25.8203 14.6344 24.5711 14.6344C23.3219 14.6344 22.273 15.4977 21.9794 16.6596H19.1563V10.3855V5.95027H26.8588V10.3855C26.8588 10.6659 27.0858 10.8935 27.3655 10.8935H29.9866V16.6596H29.9862Z" fill="black"/>
</svg>
