<svg width="24" height="16" viewBox="0 0 24 16" fill="none" xmlns="http://www.w3.org/2000/svg">
<path d="M21.4678 0.113281H1.80363C0.809187 0.113281 0 0.922468 0 1.91691V3.12233V5.71991V13.5299C0 14.5243 0.809187 15.3333 1.80363 15.3333H21.4678C22.4622 15.3333 23.2712 14.5243 23.2712 13.5299V5.71991V3.12233V1.91691C23.2712 0.922468 22.4622 0.113281 21.4678 0.113281ZM0.748766 1.91691C0.749016 1.33518 1.22189 0.862297 1.80338 0.862297H21.4675C22.049 0.862297 22.5219 1.33543 22.5219 1.91691V2.74782H0.748766V1.91691ZM22.5222 13.5296C22.5222 14.1109 22.049 14.584 21.4678 14.584H1.80363C1.22214 14.584 0.749016 14.1109 0.749016 13.5296V6.09417H22.5222V13.5296ZM22.5222 5.34516H0.749016V3.49658H22.5222V5.34516Z" fill="black"/>
<path d="M3.61974 13.1072C4.34005 13.1072 4.92578 12.5217 4.92578 11.8021C4.92578 11.0821 4.34005 10.4961 3.61974 10.4961C2.89994 10.4961 2.31421 11.0821 2.31421 11.8021C2.31421 12.5217 2.89994 13.1072 3.61974 13.1072ZM3.61974 11.2451C3.92684 11.2451 4.17676 11.495 4.17676 11.8021C4.17676 12.1087 3.92684 12.3581 3.61974 12.3581C3.3129 12.3581 3.06323 12.1087 3.06323 11.8021C3.06323 11.495 3.3129 11.2451 3.61974 11.2451Z" fill="black"/>
<path d="M6.41235 12.2217H16.9645C17.1715 12.2217 17.339 12.0541 17.339 11.8472C17.339 11.6402 17.1715 11.4727 16.9645 11.4727H6.41235C6.20537 11.4727 6.03784 11.6402 6.03784 11.8472C6.03784 12.0541 6.20537 12.2217 6.41235 12.2217Z" fill="black"/>
</svg>
