<svg width="25" height="16" viewBox="0 0 25 16" fill="none" xmlns="http://www.w3.org/2000/svg">
<path d="M10.5951 6.57031C8.66971 6.57031 7.10303 8.13699 7.10303 10.0624C7.10303 11.9879 8.66946 13.5543 10.5951 13.5543C12.5208 13.5543 14.0872 11.9879 14.0872 10.0624C14.0872 8.13699 12.5206 6.57031 10.5951 6.57031ZM10.5951 12.8035C9.08378 12.8035 7.85407 11.574 7.85407 10.0627C7.85407 8.55132 9.08378 7.32161 10.5951 7.32161C12.1067 7.32161 13.3362 8.55132 13.3362 10.0627C13.3362 11.574 12.1065 12.8035 10.5951 12.8035Z" fill="black"/>
<path d="M3.24466 6.57031C3.03712 6.57031 2.86914 6.7383 2.86914 6.94583V13.1785C2.86914 13.3858 3.03712 13.554 3.24466 13.554C3.4522 13.554 3.62018 13.3858 3.62018 13.1785V6.94583C3.62018 6.7383 3.4522 6.57031 3.24466 6.57031Z" fill="black"/>
<path d="M17.8277 6.57031C17.6204 6.57031 17.4521 6.7383 17.4521 6.94583V13.1785C17.4521 13.3858 17.6204 13.554 17.8277 13.554C18.035 13.554 18.2032 13.3858 18.2032 13.1785V6.94583C18.2032 6.7383 18.0352 6.57031 17.8277 6.57031Z" fill="black"/>
<path d="M23.9956 0H5.61556C5.40802 0 5.24004 0.167984 5.24004 0.375523V2.23286H3.5577C3.35016 2.23286 3.18218 2.40084 3.18218 2.60838V4.67325H1.32084C1.1133 4.67325 0.945312 4.84124 0.945312 5.04877V15.0745C0.945312 15.2818 1.1133 15.45 1.32084 15.45H19.7012C19.9085 15.45 20.0767 15.2818 20.0767 15.0745V13.0096H21.9383C22.1456 13.0096 22.3138 12.8414 22.3138 12.6341V10.7767H23.9959C24.2032 10.7767 24.3714 10.6085 24.3714 10.4012V0.375523C24.3712 0.167984 24.2029 0 23.9956 0ZM1.69636 14.699V5.4243H19.3256V12.6316C19.3256 12.6323 19.3254 12.6331 19.3254 12.6341C19.3254 12.6351 19.3256 12.6356 19.3256 12.6366V14.699H1.69636ZM21.5625 12.2586H20.0764V5.04877C20.0764 4.84124 19.9082 4.67325 19.7009 4.67325H3.93322V2.9839H21.5625V12.2586ZM23.6201 10.0257H22.3135V2.60838C22.3135 2.40084 22.1453 2.23286 21.938 2.23286H5.99108V0.751045H23.6201V10.0257Z" fill="black"/>
</svg>
