<svg width="11" height="6" viewBox="0 0 11 6" fill="none" xmlns="http://www.w3.org/2000/svg">
<path d="M5.26002 5.95703C5.0593 5.95209 4.88131 5.89527 4.75633 5.76926C3.71487 4.70936 2.66962 3.64945 1.62816 2.58955C1.17749 2.13248 0.730608 1.67541 0.279939 1.21834C0.219345 1.15658 0.249642 1.07999 0.351894 1.0454C0.624568 0.953983 0.897242 0.860098 1.16992 0.768684C1.33655 0.71186 1.43123 0.726684 1.53348 0.827981C2.02581 1.32952 2.52192 1.82859 3.01425 2.33013C3.73002 3.0565 4.44579 3.78534 5.16156 4.51171C5.24866 4.60065 5.33198 4.60312 5.41908 4.51171C6.04775 3.87428 6.67262 3.23686 7.30129 2.59943C7.88829 2.00401 8.4753 1.40858 9.06231 0.815627C9.13048 0.746449 9.2706 0.721742 9.38421 0.758802C9.66825 0.852686 9.95228 0.949041 10.2363 1.04787C10.3575 1.08987 10.3764 1.14175 10.3007 1.21834C9.49783 2.03365 8.69495 2.84896 7.89208 3.66428C7.21418 4.35359 6.5325 5.04289 5.85839 5.73467C5.71448 5.87303 5.53648 5.95456 5.26002 5.95703Z" fill="black" fill-opacity="0.3"/>
</svg>
