<svg width="24" height="24" viewBox="0 0 24 24" fill="none" xmlns="http://www.w3.org/2000/svg"><path d="M23.2127 8.88697C23.0825 8.46837 22.7427 8.169 22.3262 8.10602L15.7108 7.10139L12.7522 0.836954C12.566 0.442462 12.1887 0.197266 11.7676 0.197266C11.3466 0.197266 10.9691 0.442462 10.7826 0.836954L7.8241 7.10139L1.20861 8.10602C0.791668 8.16926 0.452113 8.46837 0.321896 8.88697C0.19168 9.30556 0.298333 9.7563 0.599939 10.0637L5.38694 14.9399L4.2522 21.8544C4.18151 22.2844 4.34645 22.7126 4.68229 22.9718C4.87575 23.1211 5.10394 23.1973 5.33362 23.1973C5.50278 23.1973 5.67268 23.1561 5.83042 23.0726L11.9047 19.8599L17.6843 23.035C18.0571 23.24 18.5004 23.2066 18.8409 22.9477C19.1817 22.689 19.3491 22.2587 19.2779 21.8251L18.1477 14.9399L22.9347 10.064C23.2363 9.75656 23.3429 9.30556 23.2127 8.88697ZM22.4155 9.50696L17.3483 14.6685L18.5445 21.9565C18.5678 22.0985 18.515 22.2338 18.4036 22.3186C18.2923 22.4036 18.1529 22.4142 18.0308 22.3469L11.9114 18.9849L5.49459 22.3787C5.37206 22.4433 5.23416 22.4308 5.12428 22.3463C5.0144 22.2616 4.96256 22.1268 4.98563 21.9861L6.1866 14.6688L1.11932 9.50721C1.0206 9.40665 0.987116 9.26487 1.02978 9.12776C1.07244 8.9909 1.17934 8.89656 1.31576 8.87582L8.31843 7.81235L11.4501 1.18142C11.5111 1.05208 11.6299 0.975104 11.7676 0.975104C11.9055 0.975104 12.024 1.05208 12.085 1.18142L15.2167 7.81235L22.2193 8.87582C22.3558 8.89656 22.4624 8.99064 22.5051 9.12776C22.5477 9.26487 22.5143 9.40639 22.4155 9.50696Z" fill="#157EE1"/></svg>