<svg width="30" height="26" viewBox="0 0 30 26" fill="none" xmlns="http://www.w3.org/2000/svg">
<path d="M29.4915 14.8506C29.5183 15.9339 29.3778 17.0107 29.1236 18.0743C28.8962 19.0329 28.5684 19.9652 28.1336 20.8582C27.7323 21.692 27.2574 22.4864 26.7022 23.2284C26.1872 23.9243 25.6119 24.5612 24.9765 25.1587C24.8962 25.2375 24.836 25.2375 24.7423 25.1849C23.7791 24.6465 22.749 24.2526 21.7657 23.7405C21.1169 23.3991 20.4681 23.0511 19.8594 22.6506C19.5785 22.4602 19.438 22.1647 19.3042 21.8758C18.9898 21.2193 18.8761 20.5102 18.8025 19.8011C18.7624 19.4137 18.729 19.0263 18.729 18.6324C18.729 18.5536 18.7223 18.4814 18.7958 18.4223C19.2106 18.1071 19.3577 17.6344 19.5249 17.188C19.7256 16.6627 19.8661 16.1243 19.9731 15.5728C19.9865 15.5137 19.9865 15.4612 20.0668 15.4481C20.3276 15.4087 20.4748 15.2183 20.5818 15.0016C20.7959 14.542 20.9296 14.0627 21.0166 13.5637C21.0835 13.1895 21.1303 12.8152 21.1236 12.4344C21.1169 12.0996 21.0099 11.8304 20.6688 11.6991C20.6554 11.6925 20.6487 11.6925 20.6353 11.6859C20.5617 11.6334 20.4213 11.7122 20.3945 11.6203C20.3611 11.5087 20.3744 11.3774 20.3811 11.2526C20.4213 10.7864 20.448 10.3268 20.4948 9.86068C20.5751 9.00715 20.6219 8.14705 20.5885 7.29351C20.5617 6.55816 20.4213 5.83594 20.0601 5.17281C19.7189 4.54907 19.1838 4.24048 18.4748 4.22079C18.3945 4.22079 18.3209 4.22735 18.2407 4.16169C17.7925 3.78089 17.2641 3.55109 16.7156 3.35412C15.8862 3.0521 15.03 2.91422 14.147 2.96674C13.3912 3.00614 12.6621 3.18341 11.9664 3.492C11.3109 3.78745 10.7223 4.17483 10.234 4.70008C9.52495 5.46826 9.06341 6.34806 8.90956 7.37887C8.85605 7.74654 8.85605 8.10765 8.90956 8.47533C8.94301 8.71169 9.0099 8.80361 9.23063 8.84301C9.39786 8.87584 9.44468 8.94149 9.44468 9.1122C9.42461 9.86069 9.51157 10.6026 9.51826 11.3511C9.51826 11.3774 9.51826 11.397 9.52495 11.4233C9.57177 11.6991 9.57846 11.7056 9.29083 11.7779C9.16374 11.8107 9.09685 11.8829 9.05003 12.0077C8.88281 12.4213 8.96307 12.8349 9.02996 13.2486C9.11023 13.7607 9.23063 14.2662 9.37779 14.7587C9.44468 14.9753 9.54501 15.1723 9.71893 15.3167C9.75906 15.3496 9.81257 15.4021 9.85271 15.4021C10.147 15.3758 10.1069 15.6056 10.1203 15.7566C10.1805 16.6758 10.4815 17.5097 10.9698 18.291C11.1102 18.5208 11.1102 18.7703 11.0835 19.0198C11.05 19.2758 11.0567 19.5319 11.03 19.788C10.9296 20.6875 10.7423 21.5607 10.234 22.3289C10.0801 22.5587 9.87277 22.7622 9.60522 22.8869C8.70221 23.3137 7.81926 23.7667 6.94301 24.2329C6.36107 24.5481 5.74568 24.8107 5.1905 25.1652C5.07679 25.2375 5.01659 25.1718 4.9497 25.1061C4.40789 24.594 3.91291 24.0491 3.45806 23.4647C2.8895 22.7425 2.4012 21.9678 1.99318 21.1536C1.34435 19.8667 0.909563 18.5142 0.66876 17.096C0.501536 16.0915 0.454714 15.0804 0.501536 14.0627C0.561737 12.8546 0.782473 11.6728 1.15705 10.5238C1.38448 9.82786 1.65873 9.15159 1.98649 8.49503C2.51491 7.44452 3.17043 6.47937 3.94635 5.58644C5.0099 4.35866 6.25404 3.34099 7.66542 2.52028C9.13699 1.66674 10.7223 1.1021 12.4012 0.800077C12.943 0.701592 13.4915 0.642502 14.04 0.609673C14.6019 0.570279 15.1571 0.563714 15.7122 0.589976C16.9029 0.642502 18.0801 0.846037 19.2239 1.18745C20.04 1.43038 20.8293 1.73897 21.5851 2.11977C22.6086 2.63846 23.5584 3.25563 24.4346 3.99755C24.836 4.33897 25.2239 4.68695 25.5851 5.06775C26.3678 5.90159 27.0567 6.80109 27.6253 7.7925C28.0734 8.56725 28.4413 9.37483 28.7356 10.2087C29.0032 10.9637 29.1972 11.7385 29.3243 12.5263C29.438 13.288 29.5116 14.0627 29.4915 14.8506Z" fill="black" fill-opacity="0.5"/>
</svg>
