<svg width="14" height="19" viewBox="0 0 14 19" fill="none" xmlns="http://www.w3.org/2000/svg">
<path d="M0.400391 9.64918C0.412884 9.28102 0.556555 8.95454 0.87513 8.7253C3.55491 6.81502 6.23469 4.8978 8.91447 2.98752C10.0701 2.16089 11.2257 1.3412 12.3813 0.514572C12.5375 0.403428 12.7311 0.459 12.8186 0.646555C13.0497 1.1467 13.2871 1.64685 13.5182 2.14699C13.6619 2.45264 13.6244 2.6263 13.3683 2.81385C12.1002 3.7169 10.8384 4.62688 9.57035 5.52993C7.73386 6.84281 5.89113 8.15569 4.05463 9.46858C3.82976 9.62835 3.82351 9.78117 4.05463 9.94094C5.66625 11.0941 7.27786 12.2402 8.88948 13.3933C10.3949 14.47 11.9003 15.5467 13.3995 16.6234C13.5744 16.7485 13.6369 17.0055 13.5432 17.2139C13.3058 17.7349 13.0622 18.2559 12.8123 18.7768C12.7061 18.9991 12.575 19.0339 12.3813 18.8949C10.3199 17.4223 8.25858 15.9496 6.19721 14.477C4.45441 13.2336 2.71162 11.9832 0.962582 10.7467C0.612774 10.4828 0.406637 10.1563 0.400391 9.64918Z" fill="black" fill-opacity="0.3"/>
</svg>
