<svg width="auto" height="auto" viewBox="0 0 auto auto" fill="none" xmlns="http://www.w3.org/2000/svg">
<path d="M7.16013 10.4238C6.88694 10.4146 6.64469 10.308 6.47459 10.0716C5.05713 8.08312 3.63452 6.09468 2.21705 4.10624C1.60368 3.24875 0.995461 2.39126 0.382087 1.53378C0.299616 1.4179 0.340852 1.27421 0.48002 1.20932C0.851138 1.03783 1.22225 0.861692 1.59337 0.690195C1.82016 0.583589 1.94903 0.6114 2.08819 0.801438C2.75827 1.74236 3.43349 2.67864 4.10357 3.61956C5.07775 4.98226 6.05193 6.34961 7.02611 7.71232C7.14467 7.87918 7.25806 7.88381 7.37661 7.71232C8.23224 6.51647 9.08272 5.32062 9.93835 4.12478C10.7373 3.00773 11.5362 1.89068 12.3351 0.778262C12.4279 0.648481 12.6186 0.602129 12.7733 0.671655C13.1599 0.847787 13.5464 1.02856 13.933 1.21396C14.098 1.29275 14.1237 1.39009 14.0206 1.53378C12.9279 3.06335 11.8352 4.59292 10.7424 6.12249C9.8198 7.41567 8.89201 8.70885 7.97452 10.0067C7.77866 10.2662 7.5364 10.4192 7.16013 10.4238Z" fill="black"/>
</svg>
