<svg width="14" height="14" viewBox="0 0 14 14" fill="none" xmlns="http://www.w3.org/2000/svg">
<path d="M0.34613 7.71381C0.557788 7.49331 0.769445 7.26931 0.981103 7.04881C1.1894 6.82831 1.3977 6.61131 1.606 6.39081C1.61944 6.37681 1.63287 6.36631 1.64967 6.34881C2.70796 7.33231 3.76625 8.31231 4.82789 9.29581C4.85477 9.25381 4.87829 9.21881 4.90181 9.18381C5.86602 7.70331 6.92095 6.29981 8.09683 4.99431C8.82251 4.18581 9.60867 3.44381 10.4284 2.74031C11.312 1.98081 12.2191 1.26331 13.1665 0.594813C13.1766 0.587813 13.1833 0.577313 13.19 0.570312C13.1934 0.570312 13.2001 0.570312 13.2035 0.570312C13.2539 0.710313 13.3009 0.853813 13.3547 0.993813C13.4521 1.26331 13.5529 1.53281 13.6537 1.80231C13.6537 1.81281 13.6537 1.81981 13.6537 1.83031C13.6302 1.85131 13.6033 1.86881 13.5831 1.88981C12.2594 3.26881 11.013 4.72131 9.89759 6.29281C8.91322 7.67881 8.00947 9.12431 7.15613 10.5978C6.62194 11.5148 6.11464 12.4493 5.59725 13.3768C5.58717 13.3943 5.57709 13.4118 5.56701 13.4293C5.50654 13.3698 5.44943 13.3173 5.39567 13.2578C4.07197 11.8088 2.75499 10.3598 1.43465 8.91081C1.08861 8.53281 0.742568 8.15131 0.396525 7.77331C0.379727 7.75581 0.362929 7.74181 0.34613 7.72781C0.34613 7.72431 0.34613 7.71731 0.34613 7.71381Z" fill="black"/>
</svg>
