<svg width="33" height="33" viewBox="0 0 33 33" fill="none" xmlns="http://www.w3.org/2000/svg">
<path d="M31.399 5.91037H1.47735C0.861678 5.91037 0.369141 5.41783 0.369141 4.80216V4.30963C0.369141 3.69395 0.861678 3.20142 1.47735 3.20142H31.399C32.0147 3.20142 32.5072 3.69395 32.5072 4.30963V4.67903C32.6303 5.41783 32.0147 5.91037 31.399 5.91037Z" fill="black"/>
<path d="M16.5 8.74252C18.8122 8.74252 20.6866 6.86813 20.6866 4.55595C20.6866 2.24378 18.8122 0.369385 16.5 0.369385C14.1879 0.369385 12.3135 2.24378 12.3135 4.55595C12.3135 6.86813 14.1879 8.74252 16.5 8.74252Z" fill="black"/>
<path d="M31.399 17.7313H1.47735C0.861678 17.7313 0.369141 17.2388 0.369141 16.6231V16.2537C0.369141 15.638 0.861678 15.1455 1.47735 15.1455H31.399C32.0147 15.1455 32.5072 15.638 32.5072 16.2537V16.6231C32.6303 17.2388 32.0147 17.7313 31.399 17.7313Z" fill="black"/>
<path d="M23.8877 20.5636C26.1999 20.5636 28.0743 18.6892 28.0743 16.377C28.0743 14.0648 26.1999 12.1904 23.8877 12.1904C21.5756 12.1904 19.7012 14.0648 19.7012 16.377C19.7012 18.6892 21.5756 20.5636 23.8877 20.5636Z" fill="black"/>
<path d="M31.399 29.5521H1.47735C0.861678 29.5521 0.369141 29.0596 0.369141 28.4439V28.0745C0.369141 27.4588 0.861678 26.9663 1.47735 26.9663H31.399C32.0147 26.9663 32.5072 27.4588 32.5072 28.0745V28.3208C32.6303 29.0596 32.0147 29.5521 31.399 29.5521Z" fill="black"/>
<path d="M8.74223 32.3844C11.0544 32.3844 12.9288 30.51 12.9288 28.1978C12.9288 25.8856 11.0544 24.0112 8.74223 24.0112C6.43005 24.0112 4.55566 25.8856 4.55566 28.1978C4.55566 30.51 6.43005 32.3844 8.74223 32.3844Z" fill="black"/>
</svg>
