<svg width="12" height="20" viewBox="0 0 12 20" fill="none" xmlns="http://www.w3.org/2000/svg">
<path d="M7.79743 9.9968C7.537 9.76052 7.29188 9.5314 7.04165 9.30944C4.94282 7.41919 2.84399 5.52894 0.745164 3.63869C0.607285 3.50981 0.464301 3.38809 0.326421 3.25921C0.0149159 2.97997 -0.082111 2.52889 0.086408 2.06349C0.285568 1.51932 0.484727 0.975162 0.688993 0.430999C0.852405 0.0013971 1.16902 -0.127484 1.4652 0.137437C2.28737 0.867761 3.09933 1.60524 3.91639 2.33556C5.20326 3.49549 6.49524 4.65542 7.78211 5.81534C8.82387 6.7533 9.87073 7.69127 10.9125 8.63639C11.6172 9.28079 11.6121 10.72 10.9074 11.3572C9.20687 12.8895 7.50636 14.4289 5.80074 15.9611C4.35045 17.2642 2.90528 18.5674 1.45499 19.8705C1.18944 20.1139 0.857513 20.0065 0.70942 19.6127C0.489835 19.0328 0.270248 18.4528 0.0608767 17.8657C-0.0770027 17.4719 0.02513 17.0065 0.290675 16.7702C2.5376 14.7439 4.77941 12.7248 7.02633 10.6985C7.26124 10.4908 7.49614 10.276 7.73105 10.0684C7.75148 10.0612 7.7719 10.0326 7.79743 9.9968ZM11.1116 10.0541C11.1065 9.52424 10.9431 9.18771 10.652 8.93711C9.22219 7.66263 7.79743 6.37382 6.37268 5.09218C4.68749 3.57425 3.0023 2.05633 1.31711 0.5384C1.1588 0.3952 1.05156 0.430997 0.964751 0.660119C0.765592 1.19712 0.566432 1.73412 0.367274 2.27112C0.290674 2.48593 0.341741 2.74369 0.484727 2.87973C1.71543 3.98953 2.94102 5.09934 4.17172 6.20914C5.48923 7.39771 6.80675 8.57911 8.12426 9.76768C8.3081 9.93236 8.3081 10.0899 8.12426 10.2546C6.62291 11.6078 5.11645 12.9611 3.6151 14.3143C2.57845 15.2451 1.54691 16.1759 0.510261 17.1139C0.265143 17.3358 0.265142 17.5435 0.454088 17.9588C0.637927 18.3669 0.796233 18.8036 0.929006 19.2547C1.02603 19.5698 1.13327 19.6342 1.31711 19.4767C2.26184 18.6246 3.20657 17.7798 4.15129 16.9277C6.34204 14.9515 8.53279 12.9825 10.7235 11.0135C10.984 10.7701 11.0963 10.4336 11.1116 10.0541Z" fill="black" fill-opacity="0.3"/>
<path d="M11.1123 10.0542C11.1021 10.4337 10.9846 10.7702 10.7242 11.0065C8.53345 12.9755 6.3427 14.9517 4.15195 16.9207C3.20722 17.7727 2.26249 18.6176 1.31776 19.4696C1.1901 19.5842 1.03179 19.5269 0.960299 19.3336C0.771353 18.8181 0.5773 18.3026 0.388354 17.787C0.270901 17.472 0.301542 17.293 0.510915 17.0997C1.54756 16.1689 2.5791 15.2309 3.61575 14.3001C5.11711 12.9468 6.62356 11.5936 8.12492 10.2404C8.30876 10.0757 8.31386 9.91815 8.12492 9.75347C6.8074 8.56491 5.48989 7.3835 4.17238 6.19494C2.94167 5.08513 1.71097 3.97532 0.48538 2.86552C0.342394 2.73664 0.291327 2.47172 0.367926 2.25692C0.561979 1.71991 0.761138 1.18291 0.965404 0.645907C1.05222 0.416787 1.15946 0.380986 1.31776 0.524186C3.00295 2.04211 4.68815 3.56004 6.37334 5.07797C7.79809 6.35962 9.22285 7.64842 10.6527 8.92291C10.9387 9.19499 11.1072 9.53151 11.1123 10.0542Z" fill="black" fill-opacity="0.3"/>
</svg>
