<svg width="37" height="32" viewBox="0 0 37 32" fill="none" xmlns="http://www.w3.org/2000/svg">
<path d="M18.2492 5.06505C18.3642 4.90156 18.4793 4.79257 18.5943 4.62908C18.997 4.13861 19.4571 3.75713 19.9748 3.37565C20.7801 2.77619 21.643 2.23122 22.5633 1.79524C23.4262 1.41377 24.289 1.14128 25.2669 1.03229C26.0146 0.923294 26.7624 0.977791 27.4527 1.03229C28.3155 1.08678 29.1784 1.30477 29.9837 1.57726C31.4792 2.06773 32.8023 2.83068 33.8377 3.97512C34.9881 5.11955 35.6784 6.53647 36.081 8.06238C36.3111 8.98883 36.4261 9.91527 36.4261 10.8417C36.4261 12.4221 36.0235 13.8935 35.3332 15.3105C34.758 16.5639 33.9527 17.7083 33.0323 18.7983C32.2846 19.6702 31.4792 20.4877 30.6164 21.2506C29.6385 22.1226 28.6031 22.94 27.5677 23.7575C26.5323 24.6294 25.4394 25.4469 24.3465 26.2643C22.966 27.3543 21.5854 28.4987 20.3775 29.6976C20.0899 29.9701 19.8598 30.2426 19.5722 30.5151C18.997 31.2235 18.0191 31.3325 17.2713 30.8421C17.0987 30.7331 16.9837 30.5696 16.8686 30.4606C16.2359 29.7521 15.6031 29.0982 14.8554 28.4987C14.1651 27.8992 13.4173 27.2453 12.6695 26.7003C11.9793 26.1553 11.289 25.6104 10.5987 25.0654C9.79342 24.4114 8.93058 23.7575 8.12527 23.1035C7.08988 22.2861 6.05448 21.4141 5.0766 20.4877C4.04121 19.5067 3.06333 18.4168 2.25802 17.2723C1.33767 15.9644 0.704924 14.602 0.302269 13.0761C0.0721807 12.1496 -0.0428635 11.1687 0.0146586 10.2423C0.0721807 8.98883 0.302269 7.7899 0.762446 6.64546C1.74032 4.41109 3.35094 2.83068 5.65182 1.84974C6.6297 1.46826 7.60758 1.19578 8.64297 1.08678C9.33324 0.977791 10.0235 0.977791 10.7138 1.03229C11.8067 1.08678 12.7846 1.35927 13.7624 1.79524C14.9129 2.28572 15.9483 2.99417 16.9262 3.75713C17.3863 4.13861 17.789 4.57458 18.1916 5.01056C18.1916 5.01056 18.1916 5.01056 18.2492 5.06505ZM18.3067 27.4633C18.3067 27.4633 18.3067 27.4088 18.3642 27.4088C19.3421 26.5368 20.2624 25.6649 21.2403 24.7929C22.3332 23.812 23.5412 22.94 24.6341 21.9591C25.727 21.0326 26.82 20.1607 27.9129 19.2342C28.8908 18.4168 29.8686 17.4903 30.6739 16.5094C31.4217 15.6374 31.9969 14.7655 32.4571 13.7301C32.8598 12.8581 33.0899 11.9317 33.1474 10.9507C33.1474 10.4057 33.1474 9.86078 33.0899 9.3703C32.9748 8.66185 32.8023 8.00788 32.4571 7.35392C31.7669 6.046 30.6164 5.11955 29.1208 4.57458C28.3155 4.3021 27.5102 4.13861 26.6474 4.13861C26.3023 4.13861 25.9571 4.13861 25.6695 4.1931C24.8067 4.3021 24.0589 4.68358 23.3686 5.06505C21.8731 5.937 20.6651 7.02694 19.6297 8.33486C18.997 9.15232 17.6739 9.15232 17.0412 8.33486C16.5235 7.6809 15.9483 7.08144 15.3155 6.53647C14.6253 5.937 13.8775 5.39204 13.0722 4.95606C11.9217 4.3566 10.7138 3.97512 9.39076 4.13861C8.52793 4.2476 7.6651 4.41109 6.85979 4.79257C5.36421 5.50103 4.32882 6.59097 3.81112 8.06238C3.40846 9.15232 3.35094 10.2968 3.46598 11.4957C3.58103 12.3131 3.81112 13.1306 4.15625 13.8935C4.67395 15.0925 5.47926 16.1279 6.39961 17.1089C7.03235 17.8173 7.72262 18.4713 8.47041 19.1252C9.27572 19.7792 10.0235 20.4877 10.8288 21.1416C11.7492 21.9046 12.727 22.613 13.5899 23.376C14.6828 24.3024 15.7757 25.2289 16.8686 26.2098C17.3288 26.5913 17.789 27.0273 18.3067 27.4633Z" fill="black"/>
</svg>
