<svg width="140" height="35" viewBox="0 0 140 35" fill="none" xmlns="http://www.w3.org/2000/svg"><mask id="path-1-inside-1" fill="white"><path d="M0 33.5689L4.21277 4.87392C4.58558 2.27186 5.77858 0.970825 7.75448 0.970825C9.43213 0.970825 10.6251 2.05501 11.2962 4.18726L18.7151 27.0999L26.0595 4.18726C26.7306 2.05501 27.9236 0.970825 29.6385 0.970825C31.6144 0.970825 32.7701 2.27186 33.1802 4.87392L37.393 33.5689H33.1802L29.3776 7.0423L21.7722 30.6777C21.0639 32.8461 20.0573 33.9303 18.7524 33.9303C17.4103 33.9303 16.3664 32.8461 15.6581 30.6777L8.05273 7.0423L4.28733 33.5689H0Z"/></mask><path d="M0 33.5689L4.21277 4.87392C4.58558 2.27186 5.77858 0.970825 7.75448 0.970825C9.43213 0.970825 10.6251 2.05501 11.2962 4.18726L18.7151 27.0999L26.0595 4.18726C26.7306 2.05501 27.9236 0.970825 29.6385 0.970825C31.6144 0.970825 32.7701 2.27186 33.1802 4.87392L37.393 33.5689H33.1802L29.3776 7.0423L21.7722 30.6777C21.0639 32.8461 20.0573 33.9303 18.7524 33.9303C17.4103 33.9303 16.3664 32.8461 15.6581 30.6777L8.05273 7.0423L4.28733 33.5689H0Z" fill="black" stroke="black" stroke-width="160" mask="url(#path-1-inside-1)"/><mask id="path-2-inside-2" fill="white"><path d="M39.8535 22.5102C39.8535 19.4022 40.972 16.7279 43.2088 14.4872C45.4457 12.2466 48.1672 11.1262 51.3734 11.1262C54.6169 11.1262 57.3384 12.2466 59.538 14.4872C61.7376 16.7279 62.856 19.4022 62.856 22.5464C62.856 25.7267 61.7749 28.401 59.5753 30.6055C57.3384 32.8823 54.6169 34.0027 51.3734 34.0027C48.1672 34.0027 45.4457 32.8462 43.1715 30.5694C40.972 28.3287 39.8535 25.6183 39.8535 22.5102ZM44.1036 22.4741C44.1036 24.5341 44.7746 26.3411 46.0795 27.8228C47.4962 29.3768 49.2484 30.1719 51.3361 30.1719C53.4239 30.1719 55.1761 29.3768 56.5928 27.8228C57.9349 26.3411 58.5687 24.5341 58.5687 22.4741C58.5687 20.4141 57.8976 18.6433 56.5928 17.1616C55.1761 15.6076 53.4239 14.8486 51.3361 14.8486C49.2484 14.8486 47.4962 15.6076 46.0795 17.1616C44.7746 18.6072 44.1036 20.378 44.1036 22.4741Z"/></mask><path d="M39.8535 22.5102C39.8535 19.4022 40.972 16.7279 43.2088 14.4872C45.4457 12.2466 48.1672 11.1262 51.3734 11.1262C54.6169 11.1262 57.3384 12.2466 59.538 14.4872C61.7376 16.7279 62.856 19.4022 62.856 22.5464C62.856 25.7267 61.7749 28.401 59.5753 30.6055C57.3384 32.8823 54.6169 34.0027 51.3734 34.0027C48.1672 34.0027 45.4457 32.8462 43.1715 30.5694C40.972 28.3287 39.8535 25.6183 39.8535 22.5102ZM44.1036 22.4741C44.1036 24.5341 44.7746 26.3411 46.0795 27.8228C47.4962 29.3768 49.2484 30.1719 51.3361 30.1719C53.4239 30.1719 55.1761 29.3768 56.5928 27.8228C57.9349 26.3411 58.5687 24.5341 58.5687 22.4741C58.5687 20.4141 57.8976 18.6433 56.5928 17.1616C55.1761 15.6076 53.4239 14.8486 51.3361 14.8486C49.2484 14.8486 47.4962 15.6076 46.0795 17.1616C44.7746 18.6072 44.1036 20.378 44.1036 22.4741Z" fill="black" stroke="black" stroke-width="160" mask="url(#path-2-inside-2)"/><mask id="path-3-inside-3" fill="white"><path d="M88.655 1.36877V20.7758C88.655 22.7635 88.5804 24.2452 88.394 25.221C87.8721 27.7869 86.5672 29.883 84.4795 31.5093C82.3917 33.1356 80.0057 33.9307 77.2842 33.9307C73.9289 33.9307 71.1701 32.8465 69.0078 30.642C66.92 28.4736 65.8389 25.7631 65.8389 22.4744C65.8389 19.3664 66.92 16.692 69.045 14.4875C71.1701 12.2468 73.8543 11.1265 77.0232 11.1265C79.2974 11.1265 81.3851 11.6325 83.1746 12.6444V16.9089C81.3479 15.5717 79.4465 14.885 77.4706 14.885C75.1964 14.885 73.407 15.644 71.9903 17.1618C70.6481 18.6074 69.9771 20.4506 69.9771 22.6551C69.9771 24.8235 70.6109 26.6305 71.9157 28.0399C73.2578 29.5216 75.0473 30.2806 77.2842 30.2806C79.5583 30.2806 81.3479 29.5216 82.6527 28.0038C83.9203 26.5582 84.5168 24.7512 84.5168 22.5105V1.36877H88.655Z"/></mask><path d="M88.655 1.36877V20.7758C88.655 22.7635 88.5804 24.2452 88.394 25.221C87.8721 27.7869 86.5672 29.883 84.4795 31.5093C82.3917 33.1356 80.0057 33.9307 77.2842 33.9307C73.9289 33.9307 71.1701 32.8465 69.0078 30.642C66.92 28.4736 65.8389 25.7631 65.8389 22.4744C65.8389 19.3664 66.92 16.692 69.045 14.4875C71.1701 12.2468 73.8543 11.1265 77.0232 11.1265C79.2974 11.1265 81.3851 11.6325 83.1746 12.6444V16.9089C81.3479 15.5717 79.4465 14.885 77.4706 14.885C75.1964 14.885 73.407 15.644 71.9903 17.1618C70.6481 18.6074 69.9771 20.4506 69.9771 22.6551C69.9771 24.8235 70.6109 26.6305 71.9157 28.0399C73.2578 29.5216 75.0473 30.2806 77.2842 30.2806C79.5583 30.2806 81.3479 29.5216 82.6527 28.0038C83.9203 26.5582 84.5168 24.7512 84.5168 22.5105V1.36877H88.655Z" fill="black" stroke="black" stroke-width="160" mask="url(#path-3-inside-3)"/><mask id="path-4-inside-4" fill="white"><path d="M93.4268 33.569V21.5345C93.4268 18.4626 94.2469 16.0051 95.85 14.1258C97.6023 12.102 100.026 11.1262 103.12 11.1262C106.214 11.1262 108.637 12.1381 110.352 14.162C111.956 16.0412 112.776 18.4987 112.776 21.5706V33.6051H108.749V20.8478C108.749 19.1492 108.265 17.7759 107.258 16.6556C106.214 15.4991 104.835 14.957 103.12 14.957C101.405 14.957 100.026 15.5353 98.9817 16.6917C97.9751 17.7759 97.4904 19.1854 97.4904 20.8478V33.6051H93.4268V33.569Z"/></mask><path d="M93.4268 33.569V21.5345C93.4268 18.4626 94.2469 16.0051 95.85 14.1258C97.6023 12.102 100.026 11.1262 103.12 11.1262C106.214 11.1262 108.637 12.1381 110.352 14.162C111.956 16.0412 112.776 18.4987 112.776 21.5706V33.6051H108.749V20.8478C108.749 19.1492 108.265 17.7759 107.258 16.6556C106.214 15.4991 104.835 14.957 103.12 14.957C101.405 14.957 100.026 15.5353 98.9817 16.6917C97.9751 17.7759 97.4904 19.1854 97.4904 20.8478V33.6051H93.4268V33.569Z" fill="black" stroke="black" stroke-width="160" mask="url(#path-4-inside-4)"/><mask id="path-5-inside-5" fill="white"><path d="M116.689 22.5102C116.689 19.4022 117.808 16.7279 120.045 14.4872C122.282 12.2466 125.003 11.1262 128.209 11.1262C131.453 11.1262 134.174 12.2466 136.374 14.4872C138.574 16.7279 139.692 19.4022 139.692 22.5464C139.692 25.7267 138.611 28.401 136.411 30.6055C134.174 32.8823 131.453 34.0027 128.209 34.0027C125.003 34.0027 122.282 32.8462 120.007 30.5694C117.808 28.3287 116.689 25.6183 116.689 22.5102ZM120.94 22.4741C120.94 24.5341 121.611 26.3411 122.915 27.8228C124.332 29.3768 126.084 30.1719 128.172 30.1719C130.26 30.1719 132.012 29.3768 133.429 27.8228C134.771 26.3411 135.405 24.5341 135.405 22.4741C135.405 20.4141 134.734 18.6433 133.429 17.1616C132.012 15.6076 130.26 14.8486 128.172 14.8486C126.084 14.8486 124.332 15.6076 122.915 17.1616C121.611 18.6072 120.94 20.378 120.94 22.4741Z"/></mask><path d="M116.689 22.5102C116.689 19.4022 117.808 16.7279 120.045 14.4872C122.282 12.2466 125.003 11.1262 128.209 11.1262C131.453 11.1262 134.174 12.2466 136.374 14.4872C138.574 16.7279 139.692 19.4022 139.692 22.5464C139.692 25.7267 138.611 28.401 136.411 30.6055C134.174 32.8823 131.453 34.0027 128.209 34.0027C125.003 34.0027 122.282 32.8462 120.007 30.5694C117.808 28.3287 116.689 25.6183 116.689 22.5102ZM120.94 22.4741C120.94 24.5341 121.611 26.3411 122.915 27.8228C124.332 29.3768 126.084 30.1719 128.172 30.1719C130.26 30.1719 132.012 29.3768 133.429 27.8228C134.771 26.3411 135.405 24.5341 135.405 22.4741C135.405 20.4141 134.734 18.6433 133.429 17.1616C132.012 15.6076 130.26 14.8486 128.172 14.8486C126.084 14.8486 124.332 15.6076 122.915 17.1616C121.611 18.6072 120.94 20.378 120.94 22.4741Z" fill="black" stroke="black" stroke-width="160" mask="url(#path-5-inside-5)"/></svg>