<svg width="13" height="12" viewBox="0 0 13 12" fill="none" xmlns="http://www.w3.org/2000/svg">
<path d="M12.0295 10.8144C12.0295 10.8553 12.0295 10.8961 12.0295 10.9575C11.9882 11.121 11.8643 11.2641 11.7405 11.3663C11.5959 11.5094 11.4514 11.6525 11.3068 11.7956C11.2242 11.8979 11.121 11.9796 10.9971 12.0001C10.9558 12.0001 10.9145 12.0001 10.8732 12.0001C10.7493 11.9592 10.6461 11.8774 10.5635 11.7956C9.90269 11.121 9.22128 10.4668 8.53986 9.79223C8.51921 9.77179 8.49856 9.77179 8.49856 9.75134C7.67261 10.3033 6.76405 10.5895 5.79355 10.6713C5.11214 10.7122 4.45137 10.6508 3.81125 10.4464C2.51037 10.0375 1.51922 9.26071 0.796501 8.13635C0.342224 7.42085 0.0944367 6.66446 0.0324898 5.8263C0.0324898 5.74453 0.0118408 5.6832 0.0118408 5.60143C0.0118408 5.41744 0.0118408 5.2539 0.0118408 5.06991C0.0118408 5.04947 0.0118408 5.02903 0.0324898 5.00858C0.0324898 4.90637 0.0324897 4.76327 0.0531387 4.64061C0.135735 4.06821 0.280277 3.51625 0.548714 3.00518C1.14753 1.81949 2.05609 0.981326 3.27438 0.449809C3.7906 0.224937 4.34812 0.0818366 4.92629 0.0409507C5.00889 0.0409507 5.09149 0.0205078 5.17408 0.0205078C5.31862 0.0205078 5.48382 0.0205078 5.62836 0.0205078C5.64901 0.0205078 5.69031 0.0205078 5.71095 0.0409507C6.08264 0.0613937 6.43367 0.122722 6.7847 0.204494C8.08559 0.552024 9.11803 1.28797 9.88205 2.39189C10.4189 3.18916 10.7287 4.06821 10.7906 5.00858C10.8319 5.49921 10.7906 5.9694 10.6874 6.46003C10.5635 7.1142 10.3157 7.74794 9.90269 8.2999C9.8614 8.36122 9.79945 8.42255 9.75815 8.50432C9.7788 8.52477 9.79945 8.54521 9.8201 8.54521C10.5015 9.21983 11.1623 9.874 11.8437 10.5486C11.9263 10.6099 11.9882 10.6917 12.0295 10.8144ZM5.40122 9.5878C7.7965 9.5878 9.67556 7.72749 9.67556 5.35611C9.67556 2.98473 7.7965 1.12443 5.40122 1.12443C3.02659 1.12443 1.10624 3.02562 1.10624 5.35611C1.12688 7.68661 3.04724 9.5878 5.40122 9.5878Z" fill="#B2B2B2"/>
</svg>
