<svg width="9" height="6" viewBox="0 0 9 6" fill="none" xmlns="http://www.w3.org/2000/svg">
<path d="M4.17505 5.60547C4.01575 5.60032 3.87449 5.54106 3.7753 5.40968C2.94877 4.30448 2.11923 3.19929 1.29269 2.09409C0.935029 1.61749 0.580371 1.14089 0.222707 0.664292C0.174617 0.599887 0.198662 0.520024 0.279812 0.483957C0.496214 0.388638 0.712616 0.290741 0.929018 0.195421C1.06126 0.136168 1.1364 0.151626 1.21755 0.257251C1.60828 0.780222 2.00201 1.30062 2.39274 1.82359C2.96079 2.58099 3.52885 3.34098 4.0969 4.09838C4.16603 4.19113 4.23215 4.1937 4.30128 4.09838C4.80021 3.43372 5.29613 2.76906 5.79505 2.10439C6.26092 1.48353 6.72678 0.86266 7.19265 0.244369C7.24675 0.172235 7.35796 0.146473 7.44812 0.185116C7.67354 0.283012 7.89896 0.383485 8.12438 0.486533C8.22056 0.530329 8.23558 0.584429 8.17547 0.664292C7.53829 1.51444 6.90111 2.36459 6.26392 3.21474C5.72593 3.93351 5.18492 4.65227 4.64993 5.37361C4.53572 5.51788 4.39445 5.60289 4.17505 5.60547Z" fill="#C6C6C6"/>
</svg>
