<svg width="8" height="14" viewBox="0 0 8 14" fill="none" xmlns="http://www.w3.org/2000/svg">
<path d="M7.49744 7.17765C7.49055 7.44853 7.4113 7.68874 7.23559 7.8574C5.75751 9.26291 4.27943 10.6735 2.80135 12.079C2.16395 12.6872 1.52655 13.2903 0.889146 13.8985C0.803011 13.9803 0.696204 13.9394 0.647968 13.8014C0.520488 13.4334 0.389562 13.0655 0.262082 12.6975C0.182838 12.4726 0.203512 12.3448 0.344773 12.2068C1.04419 11.5424 1.74016 10.8729 2.43958 10.2084C3.45253 9.24247 4.46893 8.2765 5.48188 7.31053C5.60591 7.19298 5.60936 7.08054 5.48188 6.96299C4.59296 6.11457 3.70405 5.27127 2.81513 4.42285C1.98479 3.63065 1.15445 2.83845 0.327548 2.04626C0.231077 1.95426 0.196622 1.76516 0.248303 1.61183C0.379229 1.22851 0.5136 0.845185 0.651416 0.461864C0.709989 0.298314 0.782342 0.272758 0.889149 0.374978C2.02613 1.4585 3.16312 2.54202 4.3001 3.62554C5.26137 4.5404 6.22264 5.46037 7.18735 6.37012C7.38029 6.56433 7.49399 6.80455 7.49744 7.17765Z" fill="black" fill-opacity="0.2"/>
</svg>
