<svg width="8" height="14" viewBox="0 0 8 14" fill="none" xmlns="http://www.w3.org/2000/svg">
<path d="M0.220337 7.09872C0.227228 6.82784 0.306472 6.58762 0.482188 6.41896C1.96027 5.01345 3.43835 3.60283 4.91643 2.19732C5.55383 1.58912 6.19123 0.986027 6.82863 0.377825C6.91476 0.296049 7.02157 0.336937 7.06981 0.474933C7.19729 0.842921 7.32821 1.21091 7.45569 1.5789C7.53494 1.80378 7.51426 1.93155 7.373 2.06955C6.67358 2.73397 5.97761 3.4035 5.27819 4.06793C4.26524 5.0339 3.24885 5.99987 2.2359 6.96583C2.11187 7.08339 2.10842 7.19583 2.2359 7.31338C3.12481 8.1618 4.01373 9.0051 4.90264 9.85352C5.73299 10.6457 6.56333 11.4379 7.39023 12.2301C7.4867 12.3221 7.52115 12.5112 7.46947 12.6645C7.33855 13.0479 7.20418 13.4312 7.06636 13.8145C7.00779 13.9781 6.93543 14.0036 6.82863 13.9014C5.69164 12.8179 4.55466 11.7343 3.41767 10.6508C2.45641 9.73597 1.49514 8.816 0.530424 7.90625C0.337481 7.71203 0.223782 7.47182 0.220337 7.09872Z" fill="black" fill-opacity="0.2"/>
</svg>
