<svg width="14" height="9" viewBox="0 0 14 9" fill="none" xmlns="http://www.w3.org/2000/svg">
<path d="M13.771 4.44482H12.5873V2.44899C12.5873 2.32263 12.4848 2.22035 12.3585 2.22035H8.65108V0.228635C8.65108 0.102276 8.54856 0 8.42224 0H0.22884C0.102368 0 0 0.102276 0 0.228635V7.72559C0 7.85179 0.102368 7.95422 0.22884 7.95422H2.14164C2.22097 8.54364 2.72625 9 3.33741 9C3.94857 9 4.45385 8.54364 4.53318 7.95422H8.42224H9.89994C9.97927 8.54364 10.4849 9 11.0966 9C11.7084 9 12.214 8.54364 12.2935 7.95422H13.7712C13.8975 7.95422 14 7.85179 14 7.72559V4.67346C13.9998 4.5471 13.8973 4.44482 13.771 4.44482ZM3.33741 8.54273C2.92382 8.54273 2.58727 8.20633 2.58727 7.7928C2.58727 7.37928 2.92382 7.04288 3.33741 7.04288C3.751 7.04288 4.08755 7.37928 4.08755 7.7928C4.08755 8.20633 3.75115 8.54273 3.33741 8.54273ZM3.33741 6.58561C2.7737 6.58561 2.30046 6.97414 2.16788 7.49695H0.457681V0.457271H8.1934V2.44899V4.67346V7.4968H4.50709C4.37451 6.97414 3.90112 6.58561 3.33741 6.58561ZM11.0966 8.54273C10.6824 8.54273 10.3456 8.20633 10.3456 7.7928C10.3456 7.37928 10.6824 7.04288 11.0966 7.04288C11.5108 7.04288 11.8478 7.37928 11.8478 7.7928C11.8478 8.20633 11.5107 8.54273 11.0966 8.54273ZM13.5422 7.4968H12.2672C12.1345 6.97399 11.6608 6.58546 11.0966 6.58546C10.5325 6.58546 10.0588 6.97399 9.92618 7.4968H8.65124V4.67346V2.67762H12.1298V4.67346C12.1298 4.79966 12.2323 4.90209 12.3586 4.90209H13.5423V7.4968H13.5422Z" fill="black"/>
</svg>
