<svg width="17" height="17" viewBox="0 0 17 17" fill="none" xmlns="http://www.w3.org/2000/svg">
<g opacity="0.5">
<circle cx="8.5" cy="8.5" r="8.25" stroke="black" stroke-width="0.5"/>
<path d="M8.94922 12H8.0459V6.7168H8.94922V12ZM7.97266 5.31543C7.97266 5.16895 8.0166 5.04525 8.10449 4.94434C8.19564 4.84342 8.3291 4.79297 8.50488 4.79297C8.68066 4.79297 8.81413 4.84342 8.90527 4.94434C8.99642 5.04525 9.04199 5.16895 9.04199 5.31543C9.04199 5.46191 8.99642 5.58398 8.90527 5.68164C8.81413 5.7793 8.68066 5.82812 8.50488 5.82812C8.3291 5.82812 8.19564 5.7793 8.10449 5.68164C8.0166 5.58398 7.97266 5.46191 7.97266 5.31543Z" fill="black"/>
</g>
</svg>
