<svg width="12" height="19" viewBox="0 0 12 19" fill="none" xmlns="http://www.w3.org/2000/svg">
<path d="M7.27285 13.8482L10.3464 8.72084C10.3564 8.70425 10.3648 8.68681 10.3714 8.66873C10.9021 7.77078 11.1824 6.74502 11.1824 5.69777C11.1824 2.55602 8.7187 0 5.69047 0C2.66224 0 0.198363 2.55602 0.198363 5.69777C0.198363 6.74523 0.479005 7.77142 1.01016 8.67001C1.01631 8.68575 1.02348 8.70106 1.03209 8.71595L3.99534 13.861C1.69506 14.1983 0.182373 15.1796 0.182373 16.37C0.182373 17.8449 2.59828 19 5.68227 19C8.76626 19 11.1822 17.8447 11.1822 16.37C11.1824 15.1741 9.59917 14.1708 7.27285 13.8482ZM1.56222 8.38267C1.07227 7.57363 0.813357 6.64527 0.813357 5.69777C0.813357 2.9078 3.0011 0.638048 5.69047 0.638048C8.37964 0.638048 10.5674 2.9078 10.5674 5.69777C10.5674 6.64569 10.3085 7.57405 9.81872 8.38267C9.80847 8.39969 9.80007 8.41734 9.7933 8.43563L6.54613 13.852C6.49734 13.9296 6.48771 13.9473 6.42805 14.049L5.60806 15.4169L1.58969 8.4401C1.58251 8.42032 1.57329 8.40096 1.56222 8.38267ZM5.68248 18.362C2.80369 18.362 0.797573 17.3119 0.797573 16.37C0.797573 15.515 2.30841 14.7093 4.34056 14.4599L5.3389 16.1934C5.39404 16.2889 5.49285 16.3478 5.60007 16.3487C5.60089 16.3487 5.60191 16.3487 5.60273 16.3487C5.70892 16.3487 5.80773 16.2917 5.8639 16.1981L6.91349 14.4473C8.97803 14.6794 10.5672 15.5054 10.5672 16.37C10.5674 17.3122 8.56126 18.362 5.68248 18.362Z" fill="black" fill-opacity="0.5"/>
<path d="M7.67834 5.69869C7.67834 4.55638 6.7825 3.62695 5.68146 3.62695C4.58041 3.62695 3.68457 4.55638 3.68457 5.69869C3.68457 6.84101 4.58041 7.77043 5.68146 7.77043C6.7825 7.77043 7.67834 6.84101 7.67834 5.69869ZM4.29956 5.69869C4.29956 4.90815 4.91948 4.265 5.68146 4.265C6.44343 4.265 7.06335 4.90815 7.06335 5.69869C7.06335 6.48923 6.44364 7.13239 5.68146 7.13239C4.91927 7.13239 4.29956 6.48923 4.29956 5.69869Z" fill="black" fill-opacity="0.5"/>
</svg>
