<svg width="20" height="12" viewBox="0 0 20 12" fill="none" xmlns="http://www.w3.org/2000/svg">
<path d="M16.6666 3.02509H14.1666V0.323242H2.49992C1.58325 0.323242 0.833252 0.931157 0.833252 1.67417V9.10424H2.49992C2.49992 10.2255 3.61658 11.1306 4.99992 11.1306C6.38325 11.1306 7.49992 10.2255 7.49992 9.10424H12.4999C12.4999 10.2255 13.6166 11.1306 14.9999 11.1306C16.3832 11.1306 17.4999 10.2255 17.4999 9.10424H19.1666V5.72693L16.6666 3.02509ZM4.99992 10.1174C4.30825 10.1174 3.74992 9.66487 3.74992 9.10424C3.74992 8.54361 4.30825 8.09105 4.99992 8.09105C5.69158 8.09105 6.24992 8.54361 6.24992 9.10424C6.24992 9.66487 5.69158 10.1174 4.99992 10.1174ZM16.2499 4.03828L17.8832 5.72693H14.1666V4.03828H16.2499ZM14.9999 10.1174C14.3082 10.1174 13.7499 9.66487 13.7499 9.10424C13.7499 8.54361 14.3082 8.09105 14.9999 8.09105C15.6916 8.09105 16.2499 8.54361 16.2499 9.10424C16.2499 9.66487 15.6916 10.1174 14.9999 10.1174Z" fill="#157EE1"/>
</svg>
