<svg width="20" height="18" viewBox="0 0 20 18" fill="none" xmlns="http://www.w3.org/2000/svg">
<path d="M14.8094 0C15.0102 0.0251007 15.211 0.0451813 15.4118 0.0803223C16.6066 0.276108 17.6358 0.803223 18.4792 1.68175C19.2523 2.48999 19.7141 3.45888 19.8748 4.56331C20.0555 5.81333 19.8246 6.99306 19.2924 8.12761C18.8808 9.00614 18.3286 9.7943 17.7161 10.5473C16.8376 11.6216 15.8586 12.6056 14.8395 13.5494C13.695 14.6086 12.5303 15.6528 11.3756 16.702C10.9238 17.1087 10.467 17.5052 10.0102 17.9018C10.0001 17.9119 9.98507 17.9219 9.96499 17.937C9.77924 17.7713 9.58848 17.6107 9.40775 17.45C8.06737 16.2452 6.72197 15.0454 5.39164 13.8305C4.42777 12.952 3.49904 12.0333 2.6406 11.0493C1.89761 10.1959 1.21487 9.29731 0.70784 8.2732C0.34639 7.54026 0.105423 6.76716 0.0251007 5.94887C0.0200806 5.87859 0.0100403 5.80831 0 5.73803C0 5.50208 0 5.26111 0 5.02517C0.00502014 5.00006 0.0150601 4.97496 0.0200803 4.94986C0.0502011 4.74404 0.0652619 4.53821 0.100403 4.33741C0.512055 2.13858 2.25405 0.456833 4.50307 0.0853425C4.7089 0.0502015 4.91974 0.0301209 5.12557 0.00502016C5.36151 0.00502016 5.60248 0.00502016 5.83843 0.00502016C5.85851 0.0100403 5.88361 0.0200806 5.90369 0.0200806C6.11956 0.0502014 6.34044 0.0652619 6.55631 0.105423C7.81637 0.34639 8.8957 0.928727 9.78426 1.85745C9.8445 1.9177 9.90475 1.98296 9.95495 2.03818C10.1859 1.82231 10.3967 1.60143 10.6276 1.40564C11.5012 0.672699 12.5052 0.220886 13.6347 0.0602418C13.7903 0.0401612 13.9409 0.0200806 14.0966 0C14.3325 0 14.5735 0 14.8094 0ZM9.97001 4.37757C9.57342 3.92073 9.20193 3.4639 8.80534 3.03217C7.61556 1.73195 6.1547 1.23496 4.43781 1.63657C2.82634 2.01308 1.69681 3.36852 1.55624 5.0101C1.50102 5.66774 1.59139 6.3053 1.80725 6.9278C2.07332 7.69588 2.48999 8.38364 2.97193 9.03626C3.68981 10.0152 4.52817 10.8887 5.39164 11.7371C6.75209 13.0725 8.18284 14.3275 9.59852 15.6026C9.719 15.7131 9.84952 15.8185 9.97503 15.9289C10.1156 15.8084 10.2511 15.693 10.3817 15.5725C11.2501 14.7893 12.1237 14.0112 12.9871 13.2231C14.1669 12.1437 15.3265 11.0443 16.3657 9.8194C16.943 9.13666 17.4701 8.41878 17.8617 7.61556C18.3034 6.70691 18.5243 5.75309 18.3587 4.74404C18.1328 3.4639 17.4601 2.50505 16.3054 1.93276C14.9952 1.28516 13.6749 1.36046 12.3847 2.02312C11.7873 2.32935 11.3154 2.78618 10.8887 3.30326C10.5925 3.66471 10.2813 4.01612 9.97001 4.37757Z" fill="#B3B3B3"/>
</svg>
