<svg width="28" height="13" viewBox="0 0 28 13" fill="none" xmlns="http://www.w3.org/2000/svg">
<rect width="28" height="13" rx="2" fill="#55BB00"/>
<path d="M10.5039 10H9.03906L6.1875 5.32227V10H4.72266V2.89062H6.1875L9.04395 7.57812V2.89062H10.5039V10ZM14.1221 10.0977C13.3473 10.0977 12.7158 9.86003 12.2275 9.38477C11.7425 8.90951 11.5 8.27637 11.5 7.48535V7.34863C11.5 6.81803 11.6025 6.3444 11.8076 5.92773C12.0127 5.50781 12.3024 5.18555 12.6768 4.96094C13.0544 4.73307 13.484 4.61914 13.9658 4.61914C14.6885 4.61914 15.2565 4.84701 15.6699 5.30273C16.0866 5.75846 16.2949 6.40462 16.2949 7.24121V7.81738H12.9307C12.9762 8.16243 13.113 8.43913 13.3408 8.64746C13.5719 8.85579 13.8633 8.95996 14.2148 8.95996C14.7585 8.95996 15.1833 8.76302 15.4893 8.36914L16.1826 9.14551C15.971 9.44499 15.6846 9.67936 15.3232 9.84863C14.9619 10.0146 14.5615 10.0977 14.1221 10.0977ZM13.9609 5.76172C13.681 5.76172 13.4531 5.85612 13.2773 6.04492C13.1048 6.23372 12.9941 6.50391 12.9453 6.85547H14.9082V6.74316C14.9017 6.43066 14.8171 6.18978 14.6543 6.02051C14.4915 5.84798 14.2604 5.76172 13.9609 5.76172ZM21.6953 8.08105L22.3887 4.7168H23.751L22.4033 10H21.2217L20.2207 6.6748L19.2197 10H18.043L16.6953 4.7168H18.0576L18.7461 8.07617L19.7129 4.7168H20.7334L21.6953 8.08105Z" fill="white"/>
</svg>
