<svg width="21" height="13" viewBox="0 0 21 13" fill="none" xmlns="http://www.w3.org/2000/svg">
<path d="M10.4158 0C10.7597 0 11.1074 0 11.4513 0C11.501 0.00874075 11.5468 0.0174814 11.5965 0.0262222C11.906 0.0655556 12.2155 0.0874074 12.525 0.139852C13.9961 0.397704 15.3563 1.00956 16.6248 1.89237C18.0768 2.90193 19.3186 4.19556 20.4381 5.64653C20.5795 5.83008 20.7209 6.02238 20.8623 6.21031C20.824 6.26275 20.7973 6.30645 20.7629 6.35016C20.5872 6.57742 20.419 6.81342 20.2356 7.03631C18.6003 9.01172 16.7204 10.5851 14.4737 11.5378C12.4371 12.4031 10.3547 12.5954 8.22645 12.0535C6.67516 11.6602 5.25377 10.9216 3.92027 9.94698C2.52563 8.93305 1.28383 7.70934 0.129911 6.36327C0.0878813 6.31519 0.0420302 6.27149 0 6.22779C0 6.21905 0 6.21031 0 6.20156C0.431765 5.71645 0.855887 5.21386 1.3144 4.7506C2.82366 3.22971 4.48195 1.97541 6.34656 1.09696C7.45081 0.57689 8.58944 0.218519 9.77775 0.0742963C9.99172 0.048074 10.2019 0.0262223 10.4158 0ZM15.15 6.20156C15.15 5.36245 14.978 4.57141 14.6303 3.83282C13.2815 0.974594 9.9153 0.183556 7.64949 2.18956C5.697 3.91586 5.33019 7.04505 6.82035 9.24772C8.06215 11.0833 10.2324 11.7869 12.162 10.9828C13.9617 10.2267 15.1462 8.33431 15.15 6.20156Z" fill="black" fill-opacity="0.3"/>
<path d="M10.5686 9.12123C9.31156 9.11249 8.25699 8.12042 8.02391 6.7219C7.8023 5.38893 8.48624 4.03849 9.6287 3.54026C11.1227 2.88908 12.7504 3.87678 13.1019 5.64241C13.377 7.03219 12.6396 8.48316 11.4169 8.95079C11.2755 9.00323 11.1303 9.04257 10.9813 9.07316C10.8438 9.10375 10.7062 9.10812 10.5686 9.12123Z" fill="black" fill-opacity="0.3"/>
</svg>
